<?xml version="1.0" encoding="utf-8"?>
<!-- Generator: Adobe Illustrator 25.4.1, SVG Export Plug-In . SVG Version: 6.00 Build 0)  -->
<svg version="1.1" id="Ebene_1" xmlns="http://www.w3.org/2000/svg" xmlns:xlink="http://www.w3.org/1999/xlink" x="0px" y="0px"
	 viewBox="0 0 480.77 281.83" style="enable-background:new 0 0 480.77 281.83;" xml:space="preserve">
<style type="text/css">
	.st0{fill:none;stroke:#94C11C;stroke-width:0.9735;stroke-miterlimit:10;}
	.st1{fill:none;stroke:#5D707F;stroke-width:1.3082;stroke-miterlimit:10;}
	.st2{fill:none;stroke:#206FA8;stroke-width:0.9735;stroke-miterlimit:10;}
	.st3{fill:#206FA8;}
	.st4{fill:#93C01C;}
	.st5{fill:#6FA36C;}
	.st6{fill:#488994;}
	.st7{fill:#94C11C;}
	.st8{fill:#67717F;}
</style>
<g>
	<polyline class="st0" points="59.61,131.31 72.8,141.27 60.53,147.05 85.72,157.73 117.5,180.25 101.06,183.45 96.16,196.87 	"/>
	<path class="st1" d="M416.22,209.16"/>
	<path class="st1" d="M108.99,209.16"/>
	<polyline class="st0" points="128.04,133.5 108.68,123.12 78.95,110.56 96.13,94.19 77.2,88.27 	"/>
	<line class="st0" x1="88.98" y1="77.67" x2="104.99" y2="82.59"/>
	<line class="st0" x1="132.01" y1="88.65" x2="149.24" y2="67.38"/>
	<polyline class="st0" points="187.25,94.41 157.78,90.05 133.91,106.28 128.04,133.5 114.19,154.33 133.86,170.53 	"/>
	<polyline class="st0" points="83.16,187.74 85.83,157.48 99.2,148.9 82.66,129.56 108.68,123.12 110.43,103.58 95.93,94.06 
		104.99,82.59 132.01,88.65 157.78,90.05 163.82,73.44 	"/>
	<line class="st0" x1="59.6" y1="131.31" x2="82.66" y2="129.56"/>
	<polyline class="st0" points="68.08,101.2 79.01,110.52 62.22,115.77 	"/>
	<polyline class="st0" points="102.76,70.06 104.99,82.59 117.95,65.69 	"/>
	<polyline class="st0" points="133.62,64.71 132.01,88.65 133.91,106.28 110.43,103.58 	"/>
	<line class="st0" x1="176.64" y1="82.74" x2="157.78" y2="90.05"/>
	<polyline class="st2" points="95.91,196.86 82.89,187.74 72.45,175.93 64.76,162.2 60.26,147.08 59.36,131.29 61.92,115.79 
		67.86,101.18 76.93,88.3 88.75,77.71 102.44,70.05 117.74,65.7 133.5,64.76 149.18,67.37 163.85,73.39 176.66,82.67 187.29,94.34 	
		"/>
	<path class="st3" d="M217.28,199.21c-1.08-1.9-2.29-3.77-3.69-5.56c-1.41-1.78-3.54-5.4-17.72-9.31
		c-4.13-1.14-8.21-2.12-12.54-2.87c0,0-0.02-3.15-0.05-3.23c7.47,0.96,11.04-6.77,12.4-12.72c1.34-5.89,4.06-12.41,3.67-18.87
		c-0.21-1.64-0.56-3.16-0.49-4.25c0.02-0.27,0.06-0.49,0.12-0.68l0.05-0.13l0.02-0.07l0.07-0.16c0.1-0.23,0.19-0.45,0.27-0.69
		c0.33-0.93,0.46-1.9,0.48-2.82c0.05-1.83-0.4-3.54-0.71-5.01l-0.92-4.47c-0.61-3.15-1.56-6.29-3.13-9.21
		c-1.55-2.91-3.82-5.57-6.71-7.36l0.11,0.08c-3.03-2.2-6.47-3.53-9.98-4.24c-3.51-0.74-7.14-0.85-10.69-0.37
		c-1.78,0.23-3.53,0.69-5.24,1.25c-1.7,0.62-3.33,1.38-4.88,2.31c-3.07,1.89-5.74,4.42-7.76,7.36c-2.04,2.94-3.49,6.23-4.43,9.62
		c-0.95,3.4-1.41,6.9-1.48,10.4c-0.12,6.99,1.23,13.97,4.02,20.38c0.71,1.6,1.6,3.14,2.52,4.59c0.94,1.44,1.69,2.84,2.04,4.43
		c0.07,0.4,0.17,0.8,0.21,1.21l0.08,0.61c0.01,0.2,0.01,0.37,0.02,0.56c-0.03,0.79-0.17,1.63-0.31,2.45
		c-0.32,1.65-0.75,3.29-1.27,4.89c-0.54,1.59-1.16,3.18-2.03,4.55c-0.24,0.32-0.46,0.66-0.73,0.91l-0.2,0.2l-0.21,0.14l-0.21,0.15
		l-0.29,0.13c-0.77,0.35-1.56,0.69-2.34,1.02c0,0-15.82,6.58-16.6,6.95c-0.77,0.38-1.58,0.71-2.29,1.27c-1.41,1.12-2.4,2.56-3.34,4
		c-0.63,0.95-4.99,10.17-7.99,16.75h1.17c3.02-6.57,7.27-15.79,7.67-16.37c0.95-1.4,1.99-2.81,3.28-3.79
		c0.64-0.49,1.45-0.81,2.22-1.17c0.78-0.35,16.7-6.63,16.7-6.63c0.8-0.32,1.59-0.64,2.39-0.98l0.63-0.33l0.33-0.21l0.26-0.25
		c0.37-0.33,0.83-1.08,1.02-1.5c0.89-1.97,1.21-2.86,1.8-4.49c0.58-1.64,0.93-3.26,1.29-4.97c0.16-0.86,0.33-1.72,0.38-2.64
		c0-0.24,0-0.5-0.01-0.73l-0.07-0.66c-0.04-0.44-0.14-0.88-0.21-1.32c-0.19-0.88-0.47-1.76-0.85-2.58
		c-0.38-0.83-0.84-1.58-1.27-2.32c-0.89-1.46-1.68-2.91-2.34-4.46c-2.57-6.2-3.75-13.01-3.51-19.71c0.26-6.67,2-13.41,5.87-18.75
		c1.9-2.67,4.36-4.9,7.16-6.55c1.41-0.81,2.9-1.48,4.43-2c1.55-0.47,3.14-0.86,4.76-1.04c3.24-0.38,6.56-0.21,9.74,0.52
		c3.17,0.7,6.24,1.99,8.73,3.87l0.05,0.04l0.06,0.04c2.35,1.51,4.18,3.74,5.49,6.29c1.31,2.55,2.13,5.4,2.64,8.31l0.86,4.61
		c0.14,0.79,0.31,1.49,0.41,2.17c0.11,0.69,0.15,1.35,0.13,1.97c-0.03,0.62-0.12,1.2-0.32,1.72c-0.05,0.13-0.1,0.26-0.16,0.38
		l-0.13,0.3l-0.16,0.4c-0.18,0.54-0.28,1.08-0.32,1.58c-0.11,2.01,0.3,3.53,0.42,4.95c-0.18,5.7-4.13,24.13-9.1,26.55
		c-2.3,1.12-7.51-0.16-7.51-0.16l0.24,11.86l3.34,0.67c3.94,0.76,8.02,1.82,11.97,2.98c1.99,0.58,4,1.12,5.94,1.86
		c6.26,2.37,7.83,4.43,8.99,5.97c1.16,1.54,2.22,3.23,3.18,5c0.14,0.25,0.26,0.47,0.39,0.71h6
		C218.48,201.41,217.9,200.3,217.28,199.21z"/>
	<circle class="st4" cx="96.16" cy="196.87" r="4.76"/>
	<circle class="st5" cx="83.16" cy="187.75" r="4.76"/>
	<circle class="st6" cx="72.75" cy="175.98" r="4.76"/>
	<circle class="st3" cx="65.02" cy="162.21" r="4.76"/>
	<circle class="st3" cx="60.49" cy="147.06" r="4.76"/>
	<circle class="st3" cx="72.8" cy="141.27" r="4.76"/>
	<circle class="st3" cx="59.62" cy="131.33" r="4.76"/>
	<circle class="st3" cx="62.2" cy="115.77" r="4.76"/>
	<circle class="st3" cx="68.11" cy="101.18" r="4.76"/>
	<circle class="st3" cx="77.17" cy="88.28" r="4.76"/>
	<circle class="st3" cx="88.99" cy="77.72" r="4.76"/>
	<circle class="st3" cx="102.67" cy="70.06" r="4.76"/>
	<circle class="st3" cx="104.98" cy="82.55" r="4.76"/>
	<circle class="st3" cx="117.93" cy="65.76" r="4.76"/>
	<circle class="st3" cx="149.26" cy="67.42" r="4.76"/>
	<circle class="st6" cx="163.71" cy="73.48" r="4.76"/>
	<circle class="st7" cx="187.26" cy="94.36" r="4.76"/>
	<circle class="st5" cx="176.77" cy="82.68" r="4.76"/>
	<circle class="st3" cx="133.59" cy="64.76" r="4.76"/>
	<circle class="st7" cx="157.7" cy="90.11" r="5.43"/>
	<circle class="st3" cx="95.93" cy="94.14" r="5.43"/>
	<circle class="st3" cx="78.87" cy="110.55" r="5.43"/>
	<circle class="st3" cx="82.57" cy="129.59" r="5.43"/>
	<circle class="st5" cx="85.88" cy="157.51" r="5.43"/>
	<circle class="st4" cx="133.89" cy="170.59" r="5.43"/>
	<circle class="st4" cx="117.61" cy="180.35" r="5.43"/>
	<circle class="st4" cx="101.07" cy="183.47" r="4.76"/>
	<circle class="st7" cx="114.19" cy="154.36" r="5.96"/>
	<circle class="st5" cx="99.12" cy="148.95" r="5.96"/>
	<circle class="st6" cx="110.37" cy="103.59" r="5.96"/>
	<circle class="st6" cx="131.98" cy="88.6" r="5.96"/>
	<circle class="st7" cx="133.96" cy="106.32" r="6.52"/>
	<circle class="st7" cx="128.01" cy="133.47" r="7.19"/>
	<circle class="st5" cx="108.59" cy="123.16" r="6.52"/>
</g>
<g>
	<g>
		<path class="st8" d="M230.54,145.34c-1.42,1.97-3.28,2.89-5.98,2.89h-7.14v-19.79h7.14c2.7,0,4.56,0.92,5.98,2.89
			c1.22,1.7,1.25,3.73,1.25,7.01S231.76,143.64,230.54,145.34z M227.12,133.11c-0.64-0.81-1.58-1.22-2.89-1.22h-2.95v12.9h2.95
			c1.31,0,2.25-0.42,2.89-1.22c0.72-0.86,0.81-2.11,0.81-5.23C227.92,135.22,227.84,133.97,227.12,133.11z"/>
		<path class="st8" d="M246.74,148.23l-1.17-3.5h-7.03l-1.2,3.5h-4.03l7.2-19.79h3.03l7.23,19.79L246.74,148.23L246.74,148.23z
			 M242.13,134.27l-2.5,7.2h4.92L242.13,134.27z"/>
		<path class="st8" d="M258.86,131.88v16.35H255v-16.35h-5.17v-3.45h14.21v3.45H258.86z"/>
		<path class="st8" d="M267.2,148.23v-19.79h13.04v3.45h-9.17v4.64h7.81v3.45h-7.81v4.81h9.17v3.45L267.2,148.23L267.2,148.23z"/>
		<path class="st8" d="M295.75,148.23l-7.84-12.15v12.15h-3.86v-19.79h3.45l7.84,12.12v-12.12h3.86v19.79L295.75,148.23
			L295.75,148.23z"/>
		<path class="st8" d="M311.52,140.78h-3.81v7.45h-3.86v-19.79h7.67c4.12,0,6.53,2.81,6.53,6.17
			C318.05,137.97,315.63,140.78,311.52,140.78z M311.32,131.88h-3.61v5.42h3.61c1.75,0,2.86-1.08,2.86-2.7
			C314.19,132.99,313.07,131.88,311.32,131.88z"/>
		<path class="st8" d="M333.26,146.31c-1.33,1.33-3,2.08-5.28,2.08s-3.98-0.75-5.31-2.08c-1.97-1.97-2-4.2-2-7.98s0.03-6,2-7.98
			c1.33-1.33,3.03-2.09,5.31-2.09s3.95,0.75,5.28,2.09c1.97,1.97,2.03,4.2,2.03,7.98S335.23,144.34,333.26,146.31z M330.45,132.77
			c-0.56-0.64-1.42-1.06-2.47-1.06s-1.92,0.42-2.5,1.06c-0.72,0.83-0.95,1.78-0.95,5.56s0.22,4.7,0.95,5.53
			c0.58,0.64,1.45,1.08,2.5,1.08s1.92-0.45,2.47-1.08c0.72-0.83,0.97-1.75,0.97-5.53S331.17,133.61,330.45,132.77z"/>
		<path class="st8" d="M349.77,148.23l-3.86-7.9h-2.78v7.9h-3.86v-19.79h7.76c4.03,0,6.42,2.75,6.42,6.06c0,2.78-1.7,4.5-3.61,5.2
			l4.42,8.54L349.77,148.23L349.77,148.23z M346.77,131.88h-3.64v5.23h3.64c1.7,0,2.81-1.08,2.81-2.61S348.46,131.88,346.77,131.88z
			"/>
		<path class="st8" d="M364.61,131.88v16.35h-3.86v-16.35h-5.17v-3.45h14.21v3.45H364.61z"/>
		<path class="st8" d="M382.27,148.23l-1.17-3.5h-7.03l-1.2,3.5h-4.03l7.2-19.79h3.03l7.23,19.79L382.27,148.23L382.27,148.23z
			 M377.65,134.27l-2.5,7.2h4.92L377.65,134.27z"/>
		<path class="st8" d="M388.77,148.23v-19.79h3.86v16.35h8.98v3.45L388.77,148.23L388.77,148.23z"/>
	</g>
	<g>
		<path class="st8" d="M221.28,99.88v4.87h7.81v3.45h-7.81v8.03h-3.86v-19.8h13.04v3.45C230.46,99.88,221.28,99.88,221.28,99.88z"/>
		<path class="st8" d="M245.21,114.31c-1.34,1.33-3,2.08-5.28,2.08s-3.97-0.75-5.31-2.08c-1.97-1.97-2-4.2-2-7.98s0.03-6,2-7.98
			c1.34-1.33,3.03-2.09,5.31-2.09s3.95,0.75,5.28,2.09c1.97,1.97,2.03,4.2,2.03,7.98S247.19,112.34,245.21,114.31z M242.41,100.77
			c-0.56-0.64-1.42-1.06-2.47-1.06s-1.92,0.42-2.5,1.06c-0.72,0.83-0.95,1.78-0.95,5.56s0.22,4.7,0.95,5.53
			c0.58,0.64,1.45,1.08,2.5,1.08s1.92-0.45,2.47-1.08c0.72-0.83,0.97-1.75,0.97-5.53S243.13,101.6,242.41,100.77z"/>
		<path class="st8" d="M261.73,116.23l-3.87-7.9h-2.78v7.9h-3.87v-19.8h7.76c4.03,0,6.42,2.75,6.42,6.06c0,2.78-1.7,4.5-3.62,5.2
			l4.42,8.54C266.19,116.23,261.73,116.23,261.73,116.23z M258.72,99.88h-3.64v5.23h3.64c1.7,0,2.81-1.08,2.81-2.61
			S260.42,99.88,258.72,99.88z"/>
		<path class="st8" d="M274.88,116.4c-3,0-5.28-0.64-7.23-2.61l2.5-2.5c1.25,1.25,2.95,1.67,4.75,1.67c2.31,0,3.53-0.89,3.53-2.47
			c0-0.67-0.2-1.22-0.61-1.64c-0.39-0.36-0.78-0.53-1.78-0.67l-2.36-0.36c-1.75-0.25-2.95-0.78-3.84-1.64
			c-0.95-0.92-1.42-2.22-1.42-3.89c0-3.53,2.61-6.01,6.89-6.01c2.72,0,4.7,0.67,6.39,2.31l-2.45,2.42c-1.22-1.2-2.75-1.36-4.06-1.36
			c-2.06,0-3.03,1.14-3.03,2.5c0,0.53,0.14,1.03,0.56,1.42c0.39,0.36,0.97,0.64,1.81,0.75l2.36,0.36c1.81,0.25,2.92,0.72,3.78,1.56
			c1.06,0.97,1.53,2.39,1.53,4.17C282.22,114.23,279.05,116.4,274.88,116.4z"/>
		<path class="st8" d="M292.53,116.4c-2.28,0-3.95-0.75-5.31-2.08c-1.97-1.97-2-4.2-2-7.98s0.03-6,2-7.98
			c1.36-1.33,3.03-2.09,5.31-2.09c3.7,0,6.53,2.11,7.26,6.26h-3.95c-0.39-1.61-1.39-2.81-3.31-2.81c-1.06,0-1.92,0.39-2.47,1.03
			c-0.72,0.83-0.97,1.81-0.97,5.59s0.25,4.75,0.97,5.59c0.56,0.64,1.42,1.03,2.47,1.03c1.92,0,2.95-1.2,3.34-2.81h3.92
			C299.06,114.28,296.2,116.4,292.53,116.4z"/>
		<path class="st8" d="M313.71,116.23v-8.29h-6.7v8.29h-3.87v-19.8h3.87v8.09h6.7v-8.09h3.87v19.79L313.71,116.23L313.71,116.23z"/>
		<path class="st8" d="M329.2,116.4c-4.06,0-7.29-2.75-7.29-6.95V96.43h3.87v12.87c0,2.28,1.33,3.64,3.42,3.64
			c2.08,0,3.45-1.36,3.45-3.64V96.43h3.84v13.01C336.48,113.64,333.26,116.4,329.2,116.4z"/>
		<path class="st8" d="M352.52,116.23l-7.84-12.15v12.15h-3.86v-19.8h3.45l7.84,12.12V96.43h3.86v19.79h-3.45V116.23z"/>
		<path class="st8" d="M372.82,114.14c-1.64,1.72-3.47,2.25-5.59,2.25c-2.25,0-3.92-0.75-5.28-2.08c-1.97-1.97-2-4.2-2-7.98
			s0.03-6,2-7.98c1.36-1.33,3.03-2.09,5.28-2.09c4.62,0,6.92,3,7.45,6.34h-3.89c-0.45-1.89-1.58-2.89-3.56-2.89
			c-1.06,0-1.89,0.42-2.47,1.06c-0.72,0.83-0.95,1.78-0.95,5.56s0.22,4.75,0.95,5.59c0.58,0.64,1.42,1.03,2.47,1.03
			c1.2,0,2.14-0.42,2.75-1.11c0.64-0.72,0.89-1.61,0.89-2.64v-0.72h-3.64v-3.25h7.48v2.89
			C374.71,110.97,374.26,112.64,372.82,114.14z"/>
		<path class="st8" d="M384.13,116.4c-3,0-5.28-0.64-7.23-2.61l2.5-2.5c1.25,1.25,2.95,1.67,4.75,1.67c2.31,0,3.53-0.89,3.53-2.47
			c0-0.67-0.2-1.22-0.61-1.64c-0.39-0.36-0.78-0.53-1.78-0.67l-2.36-0.36c-1.75-0.25-2.95-0.78-3.84-1.64
			c-0.95-0.92-1.42-2.22-1.42-3.89c0-3.53,2.61-6.01,6.89-6.01c2.72,0,4.7,0.67,6.39,2.31l-2.45,2.42c-1.22-1.2-2.75-1.36-4.06-1.36
			c-2.06,0-3.03,1.14-3.03,2.5c0,0.53,0.14,1.03,0.56,1.42c0.39,0.36,0.97,0.64,1.81,0.75l2.36,0.36c1.81,0.25,2.92,0.72,3.78,1.56
			c1.06,0.97,1.53,2.39,1.53,4.17C391.47,114.23,388.3,116.4,384.13,116.4z"/>
		<path class="st8" d="M394.47,109.97v-3.36h8.56v3.36H394.47z"/>
	</g>
	<g>
		<path class="st8" d="M220.08,162.47v5.76h6.93v1.5h-6.93v6.91h-1.69v-15.67h9.82v1.5H220.08z"/>
		<path class="st8" d="M236.84,176.77c-3.2,0-5.51-2.18-5.51-5.3v-10.5h1.69v10.36c0,2.38,1.51,3.94,3.82,3.94s3.84-1.56,3.84-3.94
			v-10.36h1.69v10.5C242.37,174.59,240.04,176.77,236.84,176.77z M233.68,159.28v-1.96h1.6v1.96H233.68z M238.39,159.28v-1.96h1.6
			v1.96H238.39z"/>
		<path class="st8" d="M256.08,176.64l-3.6-6.95h-3.8v6.95h-1.69v-15.67h6.07c2.75,0,4.69,1.65,4.69,4.36c0,2.29-1.4,3.78-3.44,4.2
			l3.75,7.11H256.08z M252.9,162.47h-4.22v5.74h4.22c1.84,0,3.15-0.95,3.15-2.86S254.74,162.47,252.9,162.47z"/>
		<path class="st8" d="M276.79,174.97c-1.11,1.21-2.6,1.8-4.22,1.8c-1.64,0-2.98-0.57-3.96-1.54c-1.49-1.47-1.58-2.84-1.58-6.42
			c0-3.59,0.09-4.95,1.58-6.42c0.98-0.97,2.31-1.54,3.96-1.54c2.98,0,5.09,1.98,5.53,4.69h-1.69c-0.44-2-1.87-3.19-3.84-3.19
			c-1.09,0-2.02,0.37-2.73,1.1c-1,1.01-1.11,2.16-1.11,5.37c0,3.21,0.11,4.36,1.11,5.37c0.71,0.73,1.64,1.1,2.73,1.1
			c1.16,0,2.27-0.46,3-1.34c0.64-0.79,0.89-1.65,0.89-2.84v-1.21h-3.89v-1.43h5.58v2.49C278.14,172.74,277.81,173.84,276.79,174.97z
			"/>
		<path class="st8" d="M282.34,176.64v-15.67h9.82v1.5h-8.13v5.52h6.93v1.5h-6.93v5.66h8.13v1.5h-9.82V176.64z"/>
		<path class="st8" d="M300,176.77c-2.35,0-3.93-0.59-5.4-2.07l1.13-1.12c1.31,1.3,2.53,1.69,4.31,1.69c2.33,0,3.75-1.06,3.75-2.9
			c0-0.84-0.25-1.5-0.78-1.96c-0.49-0.44-0.93-0.59-2.07-0.77l-1.84-0.26c-1.24-0.2-2.18-0.57-2.89-1.19
			c-0.8-0.7-1.22-1.67-1.22-2.95c0-2.66,1.93-4.4,5.07-4.4c2.02,0,3.35,0.53,4.71,1.72l-1.09,1.08c-0.96-0.9-2.04-1.36-3.69-1.36
			c-2.13,0-3.35,1.17-3.35,2.93c0,0.77,0.22,1.41,0.71,1.83s1.24,0.68,2.07,0.81l1.84,0.29c1.47,0.22,2.16,0.48,2.87,1.12
			c0.84,0.73,1.33,1.78,1.33,3.08C305.47,175.07,303.32,176.77,300,176.77z"/>
		<path class="st8" d="M314.56,176.77c-3.2,0-5.51-2.18-5.51-5.3v-10.5h1.69v10.36c0,2.38,1.51,3.94,3.82,3.94s3.84-1.56,3.84-3.94
			v-10.36h1.69v10.5C320.09,174.59,317.76,176.77,314.56,176.77z"/>
		<path class="st8" d="M334.8,176.64l-8.4-12.56v12.56h-1.69v-15.67h1.6l8.4,12.52v-12.52h1.69v15.67H334.8z"/>
		<path class="st8" d="M350.82,174.99c-1.07,1.14-2.38,1.65-4.16,1.65h-5.42v-15.67h5.42c1.78,0,3.09,0.51,4.16,1.65
			c1.4,1.5,1.4,3.78,1.4,6.18S352.22,173.49,350.82,174.99z M349.49,163.61c-0.8-0.88-1.91-1.14-3.11-1.14h-3.44v12.67h3.44
			c1.2,0,2.31-0.26,3.11-1.14c1.02-1.08,1.04-3.01,1.04-5.19C350.53,166.63,350.51,164.69,349.49,163.61z"/>
		<path class="st8" d="M365.66,176.64v-7.15h-7.51v7.15h-1.69v-15.67h1.69v7.02h7.51v-7.02h1.69v15.67H365.66z"/>
		<path class="st8" d="M372.2,176.64v-15.67h9.82v1.5h-8.13v5.52h6.93v1.5h-6.93v5.66h8.13v1.5h-9.82V176.64z"/>
		<path class="st8" d="M385.8,176.64v-15.67h1.69v15.67H385.8z"/>
		<path class="st8" d="M396.97,162.47v14.17h-1.69v-14.17h-4.58v-1.5h10.84v1.5H396.97z"/>
	</g>
</g>
</svg>
